<svg width="129" height="48" viewBox="0 0 129 48" fill="none" xmlns="http://www.w3.org/2000/svg">
    <g clip-path="url(#clip0_0_1)">
        <path
            d="M18 2V8M30 2V8M18 40V46M30 40V46M40 18H46M40 28H46M2 18H8M2 28H8M12 8H36C38.2091 8 40 9.79086 40 12V36C40 38.2091 38.2091 40 36 40H12C9.79086 40 8 38.2091 8 36V12C8 9.79086 9.79086 8 12 8ZM18 18H30V30H18V18Z"
            stroke="#FFBD2F"
            stroke-width="4"
            stroke-linecap="round"
            stroke-linejoin="round"
        />
    </g>
    <path
        d="M86.776 40.048C82.36 40.016 79.128 39.024 77.08 37.072C75.032 35.12 74.008 32.608 74.008 29.536C74.008 26.784 74.76 25.408 76.264 25.408C76.552 25.536 76.696 25.68 76.696 25.84C76.696 25.968 76.632 26.144 76.504 26.368C76.408 26.592 76.328 26.8 76.264 26.992C76.104 27.568 76.024 28.112 76.024 28.624C76.024 30.032 76.504 31.408 77.464 32.752C78.424 34.096 79.72 35.2 81.352 36.064C82.984 36.896 84.728 37.312 86.584 37.312C87.96 37.312 89.032 36.704 89.8 35.488C90.6 34.272 91 32.4 91 29.872C91 28.336 90.872 26.752 90.616 25.12L88.024 7.552C88.376 7.072 88.68 6.832 88.936 6.832C89.736 6.832 90.424 8.272 91 11.152C91.576 14 92.248 18.4 93.016 24.352L93.208 25.936C93.432 27.792 93.544 29.248 93.544 30.304C93.544 33.472 92.968 35.888 91.816 37.552C90.664 39.216 88.984 40.048 86.776 40.048ZM106.23 37.12C106.23 36.736 106.262 36.448 106.326 36.256C106.422 36.032 106.63 35.92 106.95 35.92C107.238 35.92 107.558 35.984 107.91 36.112C108.294 36.24 108.662 36.384 109.014 36.544C109.91 36.928 110.71 37.216 111.414 37.408C112.15 37.6 113.062 37.696 114.15 37.696C118.118 37.696 121.094 36.752 123.078 34.864C125.094 32.976 126.102 30.512 126.102 27.472C126.102 24.752 125.334 22.368 123.798 20.32C122.262 18.24 120.31 16.608 117.942 15.424C115.606 14.24 113.222 13.536 110.79 13.312L113.526 33.616C113.526 34.16 113.446 34.608 113.286 34.96C113.158 35.312 112.838 35.488 112.326 35.488C112.198 35.552 111.958 34.688 111.606 32.896C111.254 31.104 110.774 28.464 110.166 24.976C109.462 20.912 108.918 17.904 108.534 15.952C108.15 13.968 107.846 12.832 107.622 12.544C104.966 12.544 102.79 12.688 101.094 12.976C99.3975 13.232 98.1015 13.536 97.2055 13.888C96.3095 14.24 95.9415 14.416 96.1015 14.416C95.9415 14.352 95.8295 14.256 95.7655 14.128C95.7015 13.968 95.6535 13.744 95.6215 13.456C95.5575 13.168 95.5095 12.96 95.4775 12.832C95.4775 12.064 96.1655 11.456 97.5415 11.008C98.9175 10.56 100.358 10.256 101.862 10.096C103.398 9.936 104.422 9.856 104.934 9.856C108.358 9.856 111.926 10.56 115.638 11.968C119.35 13.344 122.47 15.376 124.998 18.064C127.526 20.752 128.79 23.936 128.79 27.616C128.79 30.368 128.102 32.72 126.726 34.672C125.35 36.592 123.542 38.048 121.302 39.04C119.094 40.032 116.726 40.528 114.198 40.528C112.15 40.528 110.31 40.208 108.678 39.568C107.046 38.928 106.23 38.112 106.23 37.12Z"
        fill="#FFBD2F"
    />
    <defs>
        <clipPath id="clip0_0_1">
            <rect width="48" height="48" fill="white" />
        </clipPath>
    </defs>
</svg>