<svg width="101" height="101" viewBox="0 0 101 101" fill="none" xmlns="http://www.w3.org/2000/svg">
<rect x="11" y="11" width="79" height="79" rx="9" stroke="#FFBD2F" stroke-width="8"/>
<rect x="33" width="8" height="14" rx="4" fill="#FFBD2F"/>
<path d="M61 4C61 1.79086 62.7909 0 65 0V0C67.2091 0 69 1.79086 69 4V10C69 12.2091 67.2091 14 65 14V14C62.7909 14 61 12.2091 61 10V4Z" fill="#FFBD2F"/>
<rect x="33" y="87" width="8" height="14" rx="4" fill="#FFBD2F"/>
<path d="M61 91C61 88.7909 62.7909 87 65 87V87C67.2091 87 69 88.7909 69 91V97C69 99.2091 67.2091 101 65 101V101C62.7909 101 61 99.2091 61 97V91Z" fill="#FFBD2F"/>
<rect x="101" y="33" width="8" height="14" rx="4" transform="rotate(90 101 33)" fill="#FFBD2F"/>
<path d="M97 61C99.2091 61 101 62.7909 101 65V65C101 67.2091 99.2091 69 97 69L91 69C88.7909 69 87 67.2091 87 65V65C87 62.7909 88.7909 61 91 61L97 61Z" fill="#FFBD2F"/>
<rect x="14" y="33" width="8" height="14" rx="4" transform="rotate(90 14 33)" fill="#FFBD2F"/>
<path d="M10 61C12.2091 61 14 62.7909 14 65V65C14 67.2091 12.2091 69 10 69L4 69C1.79086 69 -2.7141e-07 67.2091 -1.74846e-07 65V65C-7.8281e-08 62.7909 1.79086 61 4 61L10 61Z" fill="#FFBD2F"/>
<path d="M34.776 68.048C30.36 68.016 27.128 67.024 25.08 65.072C23.032 63.12 22.008 60.608 22.008 57.536C22.008 54.784 22.76 53.408 24.264 53.408C24.552 53.536 24.696 53.68 24.696 53.84C24.696 53.968 24.632 54.144 24.504 54.368C24.408 54.592 24.328 54.8 24.264 54.992C24.104 55.568 24.024 56.112 24.024 56.624C24.024 58.032 24.504 59.408 25.464 60.752C26.424 62.096 27.72 63.2 29.352 64.064C30.984 64.896 32.728 65.312 34.584 65.312C35.96 65.312 37.032 64.704 37.8 63.488C38.6 62.272 39 60.4 39 57.872C39 56.336 38.872 54.752 38.616 53.12L36.024 35.552C36.376 35.072 36.68 34.832 36.936 34.832C37.736 34.832 38.424 36.272 39 39.152C39.576 42 40.248 46.4 41.016 52.352L41.208 53.936C41.432 55.792 41.544 57.248 41.544 58.304C41.544 61.472 40.968 63.888 39.816 65.552C38.664 67.216 36.984 68.048 34.776 68.048ZM54.2295 65.12C54.2295 64.736 54.2615 64.448 54.3255 64.256C54.4215 64.032 54.6295 63.92 54.9495 63.92C55.2375 63.92 55.5575 63.984 55.9095 64.112C56.2935 64.24 56.6615 64.384 57.0135 64.544C57.9095 64.928 58.7095 65.216 59.4135 65.408C60.1495 65.6 61.0615 65.696 62.1495 65.696C66.1175 65.696 69.0935 64.752 71.0775 62.864C73.0935 60.976 74.1015 58.512 74.1015 55.472C74.1015 52.752 73.3335 50.368 71.7975 48.32C70.2615 46.24 68.3095 44.608 65.9415 43.424C63.6055 42.24 61.2215 41.536 58.7895 41.312L61.5255 61.616C61.5255 62.16 61.4455 62.608 61.2855 62.96C61.1575 63.312 60.8375 63.488 60.3255 63.488C60.1975 63.552 59.9575 62.688 59.6055 60.896C59.2535 59.104 58.7735 56.464 58.1655 52.976C57.4615 48.912 56.9175 45.904 56.5335 43.952C56.1495 41.968 55.8455 40.832 55.6215 40.544C52.9655 40.544 50.7895 40.688 49.0935 40.976C47.3975 41.232 46.1015 41.536 45.2055 41.888C44.3095 42.24 43.9415 42.416 44.1015 42.416C43.9415 42.352 43.8295 42.256 43.7655 42.128C43.7015 41.968 43.6535 41.744 43.6215 41.456C43.5575 41.168 43.5095 40.96 43.4775 40.832C43.4775 40.064 44.1655 39.456 45.5415 39.008C46.9175 38.56 48.3575 38.256 49.8615 38.096C51.3975 37.936 52.4215 37.856 52.9335 37.856C56.3575 37.856 59.9255 38.56 63.6375 39.968C67.3495 41.344 70.4695 43.376 72.9975 46.064C75.5255 48.752 76.7895 51.936 76.7895 55.616C76.7895 58.368 76.1015 60.72 74.7255 62.672C73.3495 64.592 71.5415 66.048 69.3015 67.04C67.0935 68.032 64.7255 68.528 62.1975 68.528C60.1495 68.528 58.3095 68.208 56.6775 67.568C55.0455 66.928 54.2295 66.112 54.2295 65.12Z" fill="#FFBD2F"/>
</svg>
